<svg width="51" height="55" viewBox="0 0 51 55" fill="none" xmlns="http://www.w3.org/2000/svg">
<g clip-path="url(#clip0_166_918)">
<path d="M25.1749 0C39.0794 0 50.3499 12.3114 50.3499 27.5C50.3499 42.6886 39.0794 55 25.1749 55C11.2705 55 0 42.6886 0 27.5C0 12.3114 11.2705 0 25.1749 0ZM17.1032 13.1691L10.4271 17.2459C10.1271 17.4155 9.87598 17.6727 9.7018 17.9889C9.52762 18.3051 9.4372 18.6679 9.4406 19.0369V27.2525C9.4406 27.995 9.78833 28.6739 10.4271 29.0452L17.1048 33.122C17.6854 33.4916 18.4406 33.4916 19.0779 33.122L23.6078 30.3411L26.6838 28.4264L31.2138 25.6472C31.7944 25.2759 32.548 25.2759 33.1868 25.6472L36.7286 27.8094C37.3108 28.1789 37.7152 28.8578 37.7152 29.6003V33.9866C37.7152 34.7273 37.369 35.4062 36.7286 35.7775L33.1884 38.0016C32.6063 38.3728 31.851 38.3728 31.2138 38.0016L27.672 35.8394C27.0898 35.4681 26.6838 34.7892 26.6838 34.0484V31.2056L23.6078 33.122V35.9631C23.6078 36.7039 23.9555 37.3845 24.5943 37.7541L31.272 41.8309C31.8526 42.2022 32.6063 42.2022 33.2451 41.8309L39.9227 37.7541C40.5033 37.3845 40.9093 36.7056 40.9093 35.9631V27.7475C40.9127 27.3785 40.8222 27.0157 40.6481 26.6995C40.4739 26.3833 40.2228 26.1261 39.9227 25.9566L33.1884 21.8161C32.6063 21.4466 31.851 21.4466 31.2138 21.8161L26.6838 24.6589L23.6078 26.5117L19.0779 29.3528C18.4973 29.7241 17.7436 29.7241 17.1048 29.3528L13.5048 27.1287C12.9242 26.7592 12.5182 26.0803 12.5182 25.3378V20.9516C12.5182 20.2108 12.866 19.5319 13.5048 19.1606L17.045 16.9984C17.6272 16.6272 18.3824 16.6272 19.0212 16.9984L22.5615 19.1606C23.1436 19.5319 23.5496 20.2108 23.5496 20.9516V23.7944L26.6256 21.878V19.0369C26.629 18.6679 26.5386 18.3051 26.3644 17.9889C26.1903 17.6727 25.9392 17.4155 25.6391 17.2459L19.0779 13.1691C18.4973 12.7978 17.7436 12.7978 17.1048 13.1691H17.1032Z" fill="white"/>
</g>
<defs>
<clipPath id="clip0_166_918">
<rect width="50.3499" height="55" fill="white"/>
</clipPath>
</defs>
</svg>
