<svg width="25" height="24" viewBox="0 0 25 24" fill="none" xmlns="http://www.w3.org/2000/svg">
<path d="M23.802 0.383711C23.6252 0.263356 23.4201 0.191109 23.2069 0.174078C22.9937 0.157047 22.7797 0.195819 22.586 0.286579L1.68424 10.1227C1.47058 10.2234 1.29045 10.3835 1.16537 10.5839C1.0403 10.7842 0.975574 11.0163 0.978946 11.2525C0.982318 11.4887 1.05364 11.7189 1.18439 11.9156C1.31513 12.1123 1.49976 12.2671 1.71621 12.3617L8.35559 15.267V23.5319L15.5311 18.4072L21.3885 20.9696C21.5693 21.0488 21.7665 21.0832 21.9635 21.0701C22.1605 21.057 22.3514 20.9966 22.5201 20.8941C22.6889 20.7916 22.8304 20.6499 22.9328 20.4812C23.0353 20.3124 23.0955 20.1214 23.1086 19.9245L24.3381 1.48167C24.3516 1.26789 24.3092 1.05428 24.2152 0.861798C24.1213 0.669312 23.9789 0.504562 23.802 0.383711ZM20.77 18.015L14.2917 15.1797L18.1917 7.54812L8.78715 12.7736L5.18221 11.1961L21.745 3.40095L20.77 18.015Z" fill="#F8F8F8"/>
</svg>
