<svg width="14" height="28" viewBox="0 0 14 28" fill="none" xmlns="http://www.w3.org/2000/svg">
<path d="M11.6771 27.9999C11.3782 28.0009 11.083 27.9349 10.813 27.8069C10.5429 27.6788 10.3051 27.4919 10.1168 27.2599L0.455058 15.2611C0.160841 14.9032 0 14.4544 0 13.9912C0 13.528 0.160841 13.0791 0.455058 12.7213L10.4569 0.722437C10.7964 0.314042 11.2843 0.0572171 11.8133 0.0084622C12.3422 -0.0402927 12.8689 0.123016 13.2774 0.462461C13.6859 0.801906 13.9428 1.28968 13.9915 1.81849C14.0403 2.34729 13.877 2.8738 13.5374 3.28219L4.5958 14.0012L13.2374 24.7202C13.482 25.0137 13.6374 25.3712 13.6851 25.7502C13.7329 26.1293 13.671 26.5141 13.5069 26.8591C13.3428 27.2041 13.0832 27.4949 12.7589 27.6971C12.4346 27.8993 12.0592 28.0043 11.6771 27.9999Z" fill="black"/>
</svg>
